<?xml version="1.0" encoding="utf-8"?>
<!-- Generator: Adobe Illustrator 21.0.0, SVG Export Plug-In . SVG Version: 6.00 Build 0)  -->
<svg version="1.1" id="Слой_1" xmlns="http://www.w3.org/2000/svg" xmlns:xlink="http://www.w3.org/1999/xlink" x="0px" y="0px"
	 viewBox="0 0 230.6 201.4" style="enable-background:new 0 0 230.6 201.4;" xml:space="preserve">
<style type="text/css">
	.st0{fill:#F26327;}
	.st1{fill:#152C35;}
	.st2{fill:#42515B;}
	.st3{fill:#42505B;}
	.st4{fill:#FFFFFF;}
	.st5{fill:#F58560;}
	.st6{fill:#72CCD4;}
	.st7{fill:#FFD57B;}
	.st8{fill:#FDBA52;}
	.st9{filter:url(#Adobe_OpacityMaskFilter);}
	.st10{filter:url(#Adobe_OpacityMaskFilter_1_);}
	.st11{mask:url(#SVGID_1_);fill:url(#SVGID_2_);}
	.st12{opacity:0.6;fill:url(#SVGID_3_);}
	.st13{fill:#103754;}
</style>
<g>
	<circle class="st0" cx="123.8" cy="104.3" r="84.8"/>
	<g>
		<g>
			<g>
				<path class="st1" d="M106.8,138.9L106.8,138.9C106.8,138.9,106.8,138.9,106.8,138.9L106.8,138.9c0,0.6,0.6,1,3.2,1
					c5,0,10.5,0,12.5,0c0.5,0,0.8,0,0.8,0c2,0,7.4,0,12.5,0c2.6,0,3.5,0,3.5-1h-0.2l0,0H106.8z"/>
				<path class="st1" d="M135.8,135.5c-2.3-2.4-2.4-7.5-2.4-7.5H123h-0.8h-10.4c0,0-0.1,5.2-2.4,7.5c-2.3,2.4-6,4.5,0.4,4.5
					c5,0,10.5,0,12.5,0c0.5,0,0.8,0,0.8,0c2,0,7.4,0,12.5,0C141.8,139.9,138.2,137.8,135.8,135.5z"/>
				<path class="st2" d="M124.7,139.9c1.3-2.8,5.4-5.3,10.5-5.8c0.2,0.4,0.5,0.8,0.8,1.1c2.3,2.3,5.8,4.7,0,4.7H124.7z"/>
				<path class="st2" d="M120.9,139.9c-1.3-2.8-5.4-5.3-10.5-5.8c-0.2,0.4-0.5,0.8-0.8,1.1c-2.3,2.3-5.8,4.7,0,4.7H120.9z"/>
				<path class="st1" d="M109.6,139.7c2.2,0,4.3-0.1,6.5-0.1l6.5,0l6.5,0l3.3,0l3.3,0l-3.3,0l-3.3,0l-6.5,0l-6.5,0
					C114,139.7,111.8,139.7,109.6,139.7z"/>
				<path class="st3" d="M68.8,124.6c0,1.7,2.2,3.3,3.9,3.3h48.8h1.7H172c1.7,0,3.7-1.6,3.7-3.3v-5.7h-107V124.6z"/>
				<path class="st1" d="M172,54.9h-48.8h-1.7H72.7c-1.7,0-3.9,1.6-3.9,3.4v60.6h107V58.3C175.8,56.6,173.8,54.9,172,54.9z
					 M170.8,113.9h-97v-54h97V113.9z"/>
				<path class="st1" d="M68.8,124.3c0,1.7,2.2,3.7,3.9,3.7h48.8h1.7H172c1.7,0,3.7-1.9,3.7-3.7v-5.3h-107V124.3z"/>
			</g>
			<rect x="74" y="59.4" class="st4" width="96.6" height="55"/>
			<rect x="79.1" y="63.5" class="st5" width="89.3" height="4.3"/>
			<rect x="119.1" y="78.8" class="st5" width="49.2" height="1.6"/>
			<path class="st6" d="M91.7,71.7c-5.5,0-10,2.9-10,6.5c0,2.7,2.6,5,6.3,6c0.6,1.7,1.6,3.1,3,4.8c-0.6-1.3-1-2.9-1.1-4.4
				c0.6,0.1,1.2,0.1,1.8,0.1c5.5,0,10-2.9,10-6.5C101.8,74.6,97.3,71.7,91.7,71.7z"/>
			<rect x="119.1" y="80.4" class="st1" width="49.2" height="18.6"/>
			<g>
				<rect x="81.8" y="91.9" class="st5" width="20" height="3"/>
				<rect x="81.8" y="97.9" class="st7" width="20" height="3"/>
				<rect x="81.8" y="103.9" class="st8" width="20" height="2"/>
				<rect x="118.8" y="104.9" class="st8" width="50" height="5"/>
			</g>
		</g>
		<g>
			<rect x="185.6" y="84" class="st4" width="39.6" height="53.8"/>
			<path class="st1" d="M230.6,81c0-1.4-1.2-2.6-2.6-2.6h-44.8c-1.4,0-2.6,1.2-2.6,2.6v59.7c0,1.4,1.2,2.6,2.6,2.6H228
				c1.4,0,2.6-1.2,2.6-2.6V81z M225.5,137.7h-39.9V84h39.9V137.7z"/>
			<g>
				<path class="st7" d="M205.1,96.5c-4.1,0-7.4,3.3-7.4,7.4c0,2.5,1.2,4.7,3.1,6.1h8.6c1.9-1.3,3.1-3.5,3.1-6.1
					C212.5,99.8,209.2,96.5,205.1,96.5z M205.1,108.7c-0.4,0-0.8-1.3-0.8-2.9c0-1.6,0.3-2.9,0.8-2.9c0.4,0,0.8,1.3,0.8,2.9
					C205.8,107.4,205.5,108.7,205.1,108.7z"/>
				<path class="st7" d="M200.8,116.1h2c0.3,0.6,1.2,1.1,2.3,1.1c1.1,0,2-0.5,2.3-1.1h2v-5.3h-8.5V116.1z M201.7,112h6.7v0.9h-6.7
					V112z M201.7,113.8h6.7v0.9h-6.7V113.8z"/>
				<path class="st7" d="M204.1,90.1h1.9v4.4h-1.9V90.1z M194.4,95.3l1.3-1.3l3.1,3.1l-1.3,1.3L194.4,95.3z M211.3,97.1l3.1-3.1
					l1.3,1.3l-3.1,3.1L211.3,97.1z"/>
			</g>
			<g>
				<rect x="189.1" y="126" class="st5" width="32.7" height="1.6"/>
				<rect x="189.1" y="127.1" class="st1" width="32.7" height="7.9"/>
			</g>
		</g>
		<g>
			<path class="st1" d="M61.4,91.6c0-1.9-1.6-3.5-3.5-3.5H40.3c-1.9,0-3.5,1.6-3.5,3.5v45c0,1.9,1.6,3.5,3.5,3.5h17.6
				c1.9,0,3.5-1.6,3.5-3.5V91.6z M51.7,92.7c0,0.3-0.2,0.6-0.6,0.6h-3.7c-0.3,0-0.6-0.2-0.6-0.6v0c0-0.3,0.2-0.6,0.6-0.6h3.7
				C51.4,92.1,51.7,92.4,51.7,92.7L51.7,92.7z M59.7,132.7H38.8V95.6h20.9V132.7z"/>
			<rect x="38.8" y="95.6" class="st4" width="20.8" height="37.1"/>
			<defs>
				<filter id="Adobe_OpacityMaskFilter" filterUnits="userSpaceOnUse" x="36.8" y="88.1" width="24.6" height="44.4">
					<feFlood  style="flood-color:white;flood-opacity:1" result="back"/>
					<feBlend  in="SourceGraphic" in2="back" mode="normal"/>
				</filter>
			</defs>
			<mask maskUnits="userSpaceOnUse" x="36.8" y="88.1" width="24.6" height="44.4" id="SVGID_1_">
				<g class="st9">
					<defs>
						<filter id="Adobe_OpacityMaskFilter_1_" filterUnits="userSpaceOnUse" x="36.8" y="88.1" width="24.6" height="44.4">
							<feFlood  style="flood-color:white;flood-opacity:1" result="back"/>
							<feBlend  in="SourceGraphic" in2="back" mode="normal"/>
						</filter>
					</defs>
					<mask maskUnits="userSpaceOnUse" x="36.8" y="88.1" width="24.6" height="44.4" id="SVGID_1_">
						<g class="st10">
						</g>
					</mask>
					<linearGradient id="SVGID_2_" gradientUnits="userSpaceOnUse" x1="36.7734" y1="110.3603" x2="61.3828" y2="110.3603">
						<stop  offset="0" style="stop-color:#000000"/>
						<stop  offset="9.451629e-02" style="stop-color:#060606"/>
						<stop  offset="0.2191" style="stop-color:#161616"/>
						<stop  offset="0.3607" style="stop-color:#323232"/>
						<stop  offset="0.5146" style="stop-color:#585858"/>
						<stop  offset="0.6787" style="stop-color:#898989"/>
						<stop  offset="0.8485" style="stop-color:#C4C4C4"/>
						<stop  offset="1" style="stop-color:#FFFFFF"/>
					</linearGradient>
					<path class="st11" d="M52.5,88.1h5.7c0,0,2.2,0.2,3.2,2.6l0.1,40.2c0,0,0.1,1.5-1.4,1.7c-1.5-0.1-23.2,0-23.2,0"/>
				</g>
			</mask>
			<linearGradient id="SVGID_3_" gradientUnits="userSpaceOnUse" x1="36.7734" y1="110.3603" x2="61.3828" y2="110.3603">
				<stop  offset="0" style="stop-color:#FFFFFF"/>
				<stop  offset="1" style="stop-color:#FFFFFF"/>
			</linearGradient>
			<path class="st12" d="M52.5,88.1h5.7c0,0,2.2,0.2,3.2,2.6l0.1,40.2c0,0,0.1,1.5-1.4,1.7c-1.5-0.1-23.2,0-23.2,0"/>
			<path class="st5" d="M43.5,99.4c0.6-0.6,1.5-1,2.5-1v3.6L43.5,99.4z M46.4,99.4v3.5l-2.5-2.5c-0.6,0.6-1,1.5-1,2.5
				c0,2,1.6,3.5,3.6,3.5c2,0,3.6-1.6,3.6-3.5C49.9,100.9,48.3,99.4,46.4,99.4z"/>
			<g>
				<rect x="39.9" y="107.8" class="st5" width="18.7" height="0.9"/>
				<rect x="39.9" y="114.8" class="st7" width="18.7" height="0.9"/>
				<rect x="39.9" y="117.3" class="st5" width="18.7" height="0.9"/>
				<rect x="39.9" y="119.8" class="st6" width="18.7" height="0.9"/>
				<rect x="39.9" y="122.4" class="st5" width="18.7" height="0.9"/>
				<rect x="39.9" y="108.4" class="st3" width="18.7" height="4.5"/>
			</g>
		</g>
		<g>
			<path id="Path" class="st13" d="M203.5,33.3c0,7.6-6.1,13.7-13.6,13.7h-42.2c-7.5,0-13.6-6.2-13.6-13.7c0-6.9,5-12.5,11.5-13.6
				c-0.1-0.5-0.1-1-0.1-1.5c0-4.8,3.9-8.7,8.6-8.7c2.1,0,4.1,0.8,5.6,2.1C162.3,5.6,165.8,0,175.4,0c11.7,0,17.2,9.1,17.2,18.7
				c0,0.4,0,0.8,0,1.2C198.8,21.2,203.5,26.7,203.5,33.3z"/>
			<path class="st7" d="M158.2,20.3c0-2.6,2.1-4.7,4.7-4.7c2.6,0,4.7,2.1,4.7,4.7c0,2.6-2.1,4.7-4.7,4.7
				C160.3,25,158.2,22.9,158.2,20.3z M165.2,30.9c-0.4-0.7-0.7-1.4-0.7-2.3c0-1.3,0.5-2.4,1.4-3.2c-0.3-0.1-0.7-0.1-1-0.1h-4
				c-3.3,0-6,2.7-6,6v4.9l0,0.1l0.3,0.1c2.7,0.8,5.1,1.2,7.2,1.3v-2.2C162.5,33.5,163.5,31.8,165.2,30.9z M175.8,25
				c2.6,0,4.7-2.1,4.7-4.7c0-2.6-2.1-4.7-4.7-4.7c-2.6,0-4.7,2.1-4.7,4.7C171.2,22.9,173.3,25,175.8,25z M177.8,25.3h-4
				c-0.7,0-1.3,0.1-1.9,0.3c0.7,0.8,1.2,1.8,1.2,3c0,0.8-0.2,1.6-0.7,2.3c1.6,0.9,2.7,2.6,2.7,4.5v2.2c0.4,0,0.8,0,1.1,0
				c4.4,0,7-1.3,7.1-1.3l0.3-0.2h0v-4.9C183.8,28,181.1,25.3,177.8,25.3z M165.9,28.8c0,1.6,1.3,2.9,2.9,2.9c1.6,0,2.9-1.3,2.9-2.9
				c0-1.6-1.3-2.9-2.9-2.9C167.2,25.9,165.9,27.2,165.9,28.8z M170.1,31.9h-2.5c-2,0-3.7,1.7-3.7,3.7v3l0,0l0.2,0.1
				c2,0.6,3.7,0.8,5.1,0.8c2.7,0,4.3-0.8,4.4-0.8l0.2-0.1l0,0v-3C173.8,33.5,172.1,31.9,170.1,31.9z"/>
		</g>
		<g>
			<path id="Path_1_" class="st4" d="M58,60.4c0,6.3-5.1,11.5-11.4,11.5H11.4C5.1,71.8,0,66.7,0,60.4C0,54.6,4.2,49.9,9.6,49
				c-0.1-0.4-0.1-0.8-0.1-1.2c0-4,3.2-7.3,7.2-7.3c1.8,0,3.4,0.6,4.7,1.7c2.2-5.1,5.1-9.7,13.2-9.7c9.8,0,14.4,7.6,14.4,15.6
				c0,0.3,0,0.7,0,1C54.1,50.2,58,54.8,58,60.4z"/>
			<g>
				<path class="st6" d="M41.1,57.7h-0.8c-0.2,0-0.5-0.2-0.6-0.4c-0.1-0.2-0.2-0.4-0.3-0.7c-0.1-0.2-0.1-0.6,0.1-0.7l0.6-0.6
					c0.4-0.4,0.4-1.1,0-1.5l-1-1c-0.2-0.2-0.5-0.3-0.7-0.3c-0.3,0-0.5,0.1-0.7,0.3l-0.6,0.6c-0.1,0.1-0.3,0.2-0.4,0.2
					c-0.1,0-0.2,0-0.3-0.1c-0.2-0.1-0.4-0.2-0.7-0.3c-0.2-0.1-0.4-0.3-0.4-0.6v-0.8c0-0.6-0.5-1.1-1.1-1.1h-1.4
					c-0.6,0-1.1,0.5-1.1,1.1v0.8c0,0.2-0.2,0.5-0.4,0.6c-0.2,0.1-0.4,0.2-0.7,0.3c-0.1,0-0.2,0.1-0.3,0.1c-0.2,0-0.3-0.1-0.4-0.2
					l-0.6-0.6c-0.2-0.2-0.5-0.3-0.7-0.3c-0.3,0-0.5,0.1-0.7,0.3l-1,1c-0.2,0.2-0.3,0.5-0.3,0.7c0,0.3,0.1,0.5,0.3,0.7l0.6,0.6
					c0.2,0.2,0.2,0.5,0.1,0.7c-0.1,0.2-0.2,0.4-0.3,0.7c-0.1,0.2-0.3,0.4-0.6,0.4h-0.8c-0.6,0-1.1,0.5-1.1,1.1v1.4
					c0,0.6,0.5,1.1,1.1,1.1h0.8c0.2,0,0.5,0.2,0.6,0.4c0.1,0.2,0.2,0.4,0.3,0.7c0.1,0.2,0.1,0.6-0.1,0.7l-0.6,0.6
					c-0.4,0.4-0.4,1.1,0,1.5l1,1c0.2,0.2,0.5,0.3,0.7,0.3c0.3,0,0.5-0.1,0.7-0.3l0.6-0.6c0.1-0.1,0.3-0.2,0.4-0.2
					c0.1,0,0.2,0,0.3,0.1c0.2,0.1,0.4,0.2,0.7,0.3c0.2,0.1,0.4,0.3,0.4,0.6V67c0,0.6,0.5,1.1,1.1,1.1h1.4c0.6,0,1.1-0.5,1.1-1.1
					v-0.8c0-0.2,0.2-0.5,0.4-0.6c0.2-0.1,0.4-0.2,0.7-0.3c0.1,0,0.2-0.1,0.3-0.1c0.2,0,0.3,0.1,0.4,0.2l0.6,0.6
					c0.2,0.2,0.5,0.3,0.7,0.3c0.3,0,0.5-0.1,0.7-0.3l1-1c0.4-0.4,0.4-1.1,0-1.5L39.5,63c-0.2-0.2-0.2-0.5-0.1-0.7
					c0.1-0.2,0.2-0.4,0.3-0.7c0.1-0.2,0.3-0.4,0.6-0.4h0.8c0.6,0,1.1-0.5,1.1-1.1v-1.4C42.2,58.1,41.7,57.7,41.1,57.7z M36.6,59.4
					c0,1.7-1.4,3.1-3.1,3.1c-1.7,0-3.1-1.4-3.1-3.1c0-1.7,1.4-3.1,3.1-3.1C35.2,56.3,36.6,57.7,36.6,59.4z"/>
				<path class="st6" d="M27.1,50.9c0-0.1,0.1-0.1,0.1-0.1h0.4c0.4,0,0.7-0.3,0.7-0.7v-0.7c0-0.4-0.3-0.7-0.7-0.7h-0.4
					c0,0-0.1,0-0.1-0.1c0-0.1-0.1-0.2-0.1-0.3c0-0.1,0-0.1,0-0.2l0.3-0.3c0.3-0.3,0.3-0.7,0-1l-0.5-0.5c-0.1-0.1-0.3-0.2-0.5-0.2
					c-0.2,0-0.4,0.1-0.5,0.2l-0.3,0.3c0,0,0,0-0.1,0c0,0-0.1,0-0.1,0c-0.1-0.1-0.2-0.1-0.3-0.1c-0.1,0-0.1-0.1-0.1-0.1v-0.4
					c0-0.4-0.3-0.7-0.7-0.7h-0.7c-0.4,0-0.7,0.3-0.7,0.7v0.4c0,0,0,0.1-0.1,0.1c-0.1,0-0.2,0.1-0.3,0.1c0,0,0,0-0.1,0
					c0,0-0.1,0-0.1,0l-0.3-0.3c-0.1-0.1-0.3-0.2-0.5-0.2c-0.2,0-0.4,0.1-0.5,0.2l-0.5,0.5c-0.3,0.3-0.3,0.7,0,1l0.3,0.3
					c0,0,0,0.1,0,0.2c-0.1,0.1-0.1,0.2-0.1,0.3c0,0.1-0.1,0.1-0.1,0.1h-0.4c-0.4,0-0.7,0.3-0.7,0.7v0.7c0,0.4,0.3,0.7,0.7,0.7h0.4
					c0,0,0.1,0,0.1,0.1c0,0.1,0.1,0.2,0.1,0.3c0,0.1,0,0.1,0,0.2l-0.3,0.3c-0.1,0.1-0.2,0.3-0.2,0.5c0,0.2,0.1,0.4,0.2,0.5l0.5,0.5
					c0.1,0.1,0.3,0.2,0.5,0.2c0.2,0,0.4-0.1,0.5-0.2l0.3-0.3c0,0,0,0,0.1,0c0,0,0.1,0,0.1,0c0.1,0.1,0.2,0.1,0.3,0.1
					c0.1,0,0.1,0.1,0.1,0.1v0.4c0,0.4,0.3,0.7,0.7,0.7h0.7c0.4,0,0.7-0.3,0.7-0.7v-0.4c0,0,0-0.1,0.1-0.1c0.1,0,0.2-0.1,0.3-0.1
					c0,0,0,0,0.1,0c0,0,0.1,0,0.1,0l0.3,0.3c0.1,0.1,0.3,0.2,0.5,0.2c0.2,0,0.4-0.1,0.5-0.2l0.5-0.5c0.3-0.3,0.3-0.7,0-1L27,51.4
					c0,0,0-0.1,0-0.2C27,51.1,27.1,51,27.1,50.9z M25.2,49.7c0,0.8-0.6,1.4-1.4,1.4c-0.8,0-1.4-0.6-1.4-1.4c0-0.8,0.6-1.4,1.4-1.4
					C24.6,48.4,25.2,49,25.2,49.7z"/>
			</g>
		</g>
		<g>
			<path id="MobileMe_13_" class="st7" d="M159.9,187.5c0,7.7-6.2,13.9-13.8,13.9h-42.7c-7.6,0-13.8-6.2-13.8-13.9
				c0-6.9,5-12.7,11.6-13.7c-0.1-0.5-0.1-1-0.1-1.5c0-4.9,3.9-8.8,8.8-8.8c2.2,0,4.1,0.8,5.7,2.1c2.7-6.2,6.2-11.8,16-11.8
				c11.9,0,17.5,9.2,17.5,18.9c0,0.4,0,0.8,0,1.2C155.1,175.1,159.9,180.7,159.9,187.5z"/>
			<g>
				<g>
					<path class="st13" d="M140.2,176.6h-7.7v9.9c0,1.4-1.2,2.6-2.6,2.6H118v3.3c0,0.8,0.7,1.5,1.5,1.5h11.6l4.9,4.1
						c0.6,0.5,1,0.3,0.8-0.5l-0.9-3.5c0,0,0,0,0,0h4.4c0.8,0,1.5-0.7,1.5-1.5v-14.3C141.7,177.3,141,176.6,140.2,176.6z"/>
					<path class="st13" d="M109.2,188h2.3c0,0,0,0,0,0l-0.9,3.5c-0.1,0.5,0,0.8,0.2,0.8c0.1,0,0.3-0.1,0.6-0.3l4.9-4.1h1.9h11.8
						c0.8,0,1.5-0.7,1.5-1.5v-9.9v-4.4c0-0.8-0.7-1.5-1.5-1.5h-20.6c-0.8,0-1.5,0.7-1.5,1.5v14.3C107.8,187.3,108.4,188,109.2,188z"
						/>
				</g>
			</g>
		</g>
	</g>
</g>
</svg>
