<?xml version="1.0" encoding="utf-8"?>
<!-- Generator: Adobe Illustrator 21.0.0, SVG Export Plug-In . SVG Version: 6.00 Build 0)  -->
<svg version="1.1" id="Слой_1" xmlns="http://www.w3.org/2000/svg" xmlns:xlink="http://www.w3.org/1999/xlink" x="0px" y="0px"
	 viewBox="0 0 169.5 174" style="enable-background:new 0 0 169.5 174;" xml:space="preserve">
<style type="text/css">
	.st0{fill:#FFD77B;}
	.st1{fill:#FFFFFF;}
	.st2{fill:#E0E3DE;}
	.st3{fill:#42505A;}
	.st4{fill:#96D7E0;}
	.st5{fill:#F58460;}
	.st6{fill:#44525C;}
	.st7{fill:#77CDD6;}
	.st8{fill:#42515B;}
	.st9{fill:#F58361;}
	.st10{fill:#EBA537;}
	.st11{fill:#CD842A;}
	.st12{fill:#F1594C;}
	.st13{fill:#BD3C31;}
	.st14{fill:#1E2C39;}
	.st15{fill:#F26327;}
	.st16{fill:#F48060;}
	.st17{fill:#FAC1B4;}
	.st18{fill:#F7F5F6;}
	.st19{fill:#94D6DD;}
	.st20{fill:#DBF0F6;}
	.st21{fill:#DAD6DD;}
	.st22{fill:#72CCD4;}
	.st23{opacity:0.46;fill:#F58460;}
</style>
<g>
	<circle class="st0" cx="84.8" cy="84.8" r="84.8"/>
	<g>
		<g>
			<path class="st1" d="M134,118.6c-11,0-20.3-7.9-22.1-18.7c-2.1-12.2,6.2-23.8,18.4-25.9c1.3-0.2,2.5-0.3,3.8-0.3
				c11,0,20.3,7.9,22.1,18.7c2.1,12.2-6.2,23.8-18.4,25.9C136.6,118.5,135.3,118.6,134,118.6z"/>
			
				<ellipse transform="matrix(0.9858 -0.1681 0.1681 0.9858 -14.2565 23.9069)" class="st2" cx="134.1" cy="96.2" rx="20.7" ry="20.7"/>
			<path class="st3" d="M134.1,104.4c-4,0-7.5-2.9-8.1-6.9c-0.8-4.5,2.3-8.8,6.7-9.5c0.5-0.1,0.9-0.1,1.4-0.1c4,0,7.4,2.9,8.1,6.9
				c0.8,4.5-2.3,8.8-6.7,9.5C135,104.4,134.5,104.4,134.1,104.4z"/>
			
				<ellipse transform="matrix(0.9858 -0.1681 0.1681 0.9858 -14.2535 23.9009)" class="st4" cx="134.1" cy="96.2" rx="6.2" ry="6.2"/>
			
				<ellipse transform="matrix(0.9858 -0.1681 0.1681 0.9858 -14.2574 23.9088)" class="st3" cx="134.1" cy="96.2" rx="3.7" ry="3.7"/>
		</g>
		<g>
			<g>
				<path class="st1" d="M119,127.2c0,4.5-3.7,8.1-8.2,8.1l-52.2-0.4c-4.5,0-8.1-3.7-8.1-8.2l0.7-80.9c0-4.5,3.7-8.1,8.2-8.1
					l52.2,0.4c4.5,0,8.1,3.7,8.1,8.2L119,127.2z"/>
				<path class="st5" d="M102.8,45.8c0,1.2-1,2.2-2.3,2.2l-30.2-0.2c-1.2,0-2.2-1-2.2-2.2l0,0c0-1.2,1-2.2,2.3-2.2l30.2,0.2
					C101.8,43.6,102.8,44.6,102.8,45.8L102.8,45.8z"/>
				<path class="st6" d="M94.8,49.6c0,1.5-1.2,2.7-2.7,2.7l-13.4-0.1c-1.5,0-2.7-1.2-2.7-2.7l0,0c0-1.5,1.2-2.7,2.7-2.7l13.4,0.1
					C93.6,46.9,94.8,48.1,94.8,49.6L94.8,49.6z"/>
			</g>
			<g>
				<g>
					<g>
						<polygon class="st7" points="73.3,86.4 70.3,80 67.3,86.4 						"/>
					</g>
					<g>
						<polygon class="st0" points="82,86.4 76.7,74.1 71.4,86.4 						"/>
					</g>
					<g>
						<polygon class="st8" points="92.9,86.4 85.9,65 79,86.4 						"/>
					</g>
					<g>
						<polygon class="st9" points="103.5,86.4 96.6,69.4 89.7,86.4 						"/>
					</g>
				</g>
				<g>
					<g>
						<g>
							<g>
								<path class="st10" d="M84.7,98c2.1,0,3.8,1.7,3.8,3.8c0,2.1-1.7,3.8-3.8,3.8c-2.1,0-3.8-1.7-3.8-3.8
									C80.9,99.6,82.6,98,84.7,98 M84.7,95c-3.7,0-6.8,3-6.8,6.8c0,3.7,3,6.8,6.8,6.8c3.7,0,6.8-3,6.8-6.8
									C91.5,98,88.4,95,84.7,95L84.7,95z"/>
							</g>
						</g>
					</g>
					<path class="st11" d="M80.9,101.7c0-2,1.6-3.6,3.5-3.8v-3c-3.6,0.1-6.5,3.1-6.5,6.8c0,3.6,2.9,6.6,6.5,6.8v-3
						C82.5,105.4,80.9,103.7,80.9,101.7z"/>
				</g>
				<g>
					<path class="st12" d="M104.6,98.3c2.1,0,3.8,1.7,3.8,3.8c0,2.1-1.7,3.8-3.8,3.8c-2.1,0-3.8-1.7-3.8-3.8
						C100.8,100,102.5,98.3,104.6,98.3 M104.6,95.3c-3.7,0-6.8,3-6.8,6.8c0,3.7,3,6.8,6.8,6.8c3.7,0,6.8-3,6.8-6.8
						C111.4,98.4,108.4,95.3,104.6,95.3L104.6,95.3z"/>
					<g>
						<path class="st13" d="M100.9,102.7h-3c0.3,3.4,3.2,6.1,6.7,6.1l-0.1-3C102.7,105.8,101.2,104.5,100.9,102.7z"/>
						<path class="st13" d="M104.6,98.3c2.1,0,3.8,1.7,3.8,3.8c0,0.2,0,0.4-0.1,0.6h3c0-0.2,0-0.4,0-0.6c0-3.7-3-6.8-6.8-6.8
							c-0.1,0-0.2,0-0.3,0l0.1,3C104.4,98.3,104.5,98.3,104.6,98.3z"/>
						<path class="st13" d="M100.8,102.1c0-2,1.5-3.6,3.5-3.8l-0.1-3c-3.6,0.2-6.4,3.1-6.4,6.7c0,0.2,0,0.4,0,0.6h3
							C100.9,102.5,100.8,102.3,100.8,102.1z"/>
					</g>
				</g>
				<g>
					<path class="st3" d="M65.3,98.3c2.1,0,3.8,1.7,3.8,3.8c0,2.1-1.7,3.8-3.8,3.8c-2.1,0-3.8-1.7-3.8-3.8
						C61.5,100,63.2,98.3,65.3,98.3 M65.3,95.3c-3.7,0-6.8,3-6.8,6.8c0,3.7,3,6.8,6.8,6.8c3.7,0,6.8-3,6.8-6.8
						C72.1,98.4,69,95.3,65.3,95.3L65.3,95.3z"/>
					<path class="st14" d="M61.6,102.7h-3c0.3,3.4,3.2,6.1,6.7,6.1v-3C63.4,105.9,61.9,104.5,61.6,102.7z"/>
				</g>
				<rect x="58.6" y="115.4" class="st9" width="53" height="3"/>
				<rect x="58.6" y="122.4" class="st7" width="53" height="3"/>
			</g>
		</g>
		<path class="st15" d="M123.5,24.5l-0.4,60.4l40.4,0.3L123.5,24.5z M129.5,47l20.9,29.9l-21.1-0.2L129.5,47z"/>
		<g>
			<polygon class="st16" points="31.7,59.8 33,60.4 32.9,123.7 31.6,123.7 			"/>
			<polygon class="st5" points="28,60.2 29.4,59.8 29.3,123.7 28,123.7 			"/>
			
				<rect x="-1.5" y="90.5" transform="matrix(1.589175e-03 -1 1 1.589175e-03 -61.2874 122.0591)" class="st17" width="63.9" height="2.5"/>
			<path class="st18" d="M31.8,59.8c0,0-0.6,1.3-1.1,1.2c-0.5-0.1-1.2-1.3-1.4-1.2c-0.2,0.1-0.4,1.1-0.8,1.1c-0.4,0-0.5-0.5-0.5-0.5
				l2.3-9.2l2.6,9.2C33,60.4,32.2,61.5,31.8,59.8z"/>
			<path class="st5" d="M31.3,54.6l-1-3.3l-0.9,3.3C29.5,54.6,30.4,55.3,31.3,54.6z"/>
		</g>
		<g>
			<polygon class="st19" points="42.1,63.3 43.3,63.9 43.2,123.2 42,123.2 			"/>
			<polygon class="st19" points="38.6,63.7 39.9,63.3 39.8,123.2 38.6,123.2 			"/>
			
				<rect x="11" y="92.1" transform="matrix(1.476782e-03 -1 1 1.476782e-03 -52.3712 134.0564)" class="st20" width="59.9" height="2.3"/>
			<path class="st21" d="M42.1,63.3c0,0-0.6,1.2-1,1.1c-0.4-0.1-1.1-1.2-1.3-1.1c-0.1,0.1-0.4,1.1-0.7,1.1c-0.3,0-0.5-0.5-0.5-0.5
				l2.2-8.6l2.5,8.6C43.3,63.9,42.6,64.9,42.1,63.3z"/>
			<path class="st3" d="M41.7,58.4l-0.9-3.1L40,58.4C40,58.4,40.9,59.1,41.7,58.4z"/>
		</g>
		<g>
			
				<rect x="70.6" y="131.2" transform="matrix(0.9147 -0.4041 0.4041 0.9147 -45.7002 57.0769)" class="st22" width="83.5" height="11.3"/>
			<g>
				<line class="st1" x1="144.6" y1="116.5" x2="148.1" y2="124.6"/>
				<line class="st1" x1="141.5" y1="117.8" x2="145.1" y2="125.9"/>
				<line class="st1" x1="138.5" y1="119.2" x2="142.1" y2="127.3"/>
				<line class="st1" x1="135.5" y1="120.5" x2="139" y2="128.6"/>
				<line class="st1" x1="132.5" y1="121.8" x2="136" y2="129.9"/>
				<line class="st1" x1="129.4" y1="123.1" x2="133" y2="131.3"/>
				<line class="st1" x1="126.4" y1="124.5" x2="130" y2="132.6"/>
				<line class="st1" x1="123.4" y1="125.8" x2="127" y2="133.9"/>
				<line class="st1" x1="120.4" y1="127.1" x2="123.9" y2="135.2"/>
				<line class="st1" x1="117.3" y1="128.4" x2="120.9" y2="136.6"/>
				<line class="st1" x1="114.3" y1="129.8" x2="117.9" y2="137.9"/>
				<line class="st1" x1="111.3" y1="131.1" x2="114.9" y2="139.2"/>
				<line class="st1" x1="108.3" y1="132.4" x2="111.8" y2="140.5"/>
				<line class="st1" x1="105.2" y1="133.7" x2="108.8" y2="141.9"/>
				<line class="st1" x1="102.2" y1="135.1" x2="105.8" y2="143.2"/>
				<line class="st1" x1="99.2" y1="136.4" x2="102.8" y2="144.5"/>
				<line class="st1" x1="96.2" y1="137.7" x2="99.7" y2="145.8"/>
				<line class="st1" x1="93.2" y1="139.1" x2="96.7" y2="147.2"/>
				<line class="st1" x1="90.1" y1="140.4" x2="93.7" y2="148.5"/>
				<line class="st1" x1="87.1" y1="141.7" x2="90.7" y2="149.8"/>
				<line class="st1" x1="84.1" y1="143" x2="87.6" y2="151.2"/>
				<line class="st1" x1="81.1" y1="144.4" x2="84.6" y2="152.5"/>
				<line class="st1" x1="78" y1="145.7" x2="81.6" y2="153.8"/>
				<line class="st1" x1="75" y1="147" x2="78.6" y2="155.1"/>
			</g>
		</g>
		<g>
			<path class="st3" d="M52,132.1l7.1,5.3c2.9,2.1,3.5,6.2,1.3,9.1l-0.3,0.4c-2.1,2.9-6.2,3.5-9.1,1.3l-6.7-5"/>
			<path class="st5" d="M44.4,143.2l-7.4-5.5c-2.9-2.1-3.5-6.2-1.3-9.1l0.3-0.4c2.1-2.9,6.2-3.5,9.1-1.3l7.1,5.3"/>
			<path class="st23" d="M60.2,146.8l0.3-0.4c2.1-2.9,1.5-6.9-1.3-9.1l-7.1-5.3l-7.1-5.3c-2.9-2.1-6.9-1.5-9.1,1.3l-0.3,0.4"/>
		</g>
		<path class="st1" d="M73.1,23.5c-0.2,0-0.4,0.2-0.5,0.4c-1.5,0.6-5.6,2.4-5.6,3.1c0,0.7,4.1,2.3,5.6,2.9c0,0.2,0.2,0.4,0.5,0.4
			c0.2,0,0.4-0.2,0.5-0.4c0,0,0.1,0,0.1,0l23.1-0.3c1,0,1.7-0.8,1.7-1.8l0-2.6c0-1-0.8-1.7-1.8-1.7l-23.1,0.3c0,0-0.1,0-0.1,0
			C73.5,23.7,73.3,23.5,73.1,23.5z"/>
	</g>
</g>
</svg>
